<svg xmlns="http://www.w3.org/2000/svg" xmlns:xlink="http://www.w3.org/1999/xlink" xmlns:xodm="http://www.corel.com/coreldraw/odm/2003" xml:space="preserve" width="256" height="256" version="1.1" style="shape-rendering:geometricPrecision; text-rendering:geometricPrecision; image-rendering:optimizeQuality; fill-rule:evenodd; clip-rule:evenodd" viewBox="15000 1000 200 10000">
 <defs>
  <style type="text/css">
   <![CDATA[
    .fil0 {fill:#00081F}
    .fil6 {fill:#18222F}
    .fil4 {fill:#2D303A}
    .fil3 {fill:#395D82}
    .fil5 {fill:#8FAECC}
    .fil2 {fill:#D1DEEC}
    .fil1 {fill:#F3FAFA}
   ]]>
  </style>
 </defs>
 <g id="Layer_x0020_1">
  <metadata id="CorelCorpID_0Corel-Layer"/>
  <g id="_1558484702208">
   
   <path class="fil1" d="M15146.47 3894.82c-55.19,-14.6 -4.17,-19.38 -71.81,-29.6 -454.06,-68.64 -1136.87,252.14 -1289.58,709.02 -30.78,92.06 -30.31,227.46 -95.23,432.08 -91.39,288.08 -286.3,718.23 108.81,984.6 80.72,54.42 96.79,56.85 213.23,60.24 68.21,152.61 399.87,194.41 462.6,221.24l-8.35 3616.8 -628.38 1.08 -3.64 -3503.34c56.25,-34 132.89,-55.18 206.86,-71.99 -47.92,-24.71 -131.47,-42.82 -192.83,-72.78 -93.57,-45.69 -72.44,-68.59 -182.23,-30.74 -257.01,88.61 -680.53,305.98 -854.64,495.51 -51.06,55.57 -94.67,85.89 -146.07,139.16 -590.67,612.23 -943.19,1518.43 -802.12,2400.85 130.28,814.99 639.03,1721.55 1623.61,1720.39l1244.13 -3.33c-6.34,-144.89 -198.44,-346.52 -279.99,-405 -181.27,-129.99 -290,-127.11 -541.19,-149.96 29.62,-54.87 62.71,-100.13 99.57,-162.97 34.54,-58.91 83.37,-121.72 104.1,-181.67l-199.55 -6.75 -1.42 -52.25 129.1 -14.72c54.85,-0.76 96.74,-5.13 150.34,2.78 31.42,95.06 -54.64,173.6 -78.37,267.45 254.43,-2.61 453.77,124.39 568.41,256.62 115.45,-28.89 128.73,-58.32 283.98,-66.33 -2.49,-54.42 -18.46,-89.37 6.06,-133.84 47.4,27.61 73.41,81.08 110.45,120.24 46.97,49.66 79.64,66.89 129.89,110.05 84.64,72.71 177.4,140.08 279.1,201.02 478.33,286.65 863.88,213.07 1470.53,214.24 6.93,-212.35 -194.68,-514.22 -337.67,-665.53 13.16,-67.78 56.44,-171.28 80.16,-251.87 28.85,-98.03 49.49,-174.55 82.46,-262.82 250.25,-669.93 364.21,-841.86 364.26,-1740.09 0.06,-1098.55 -559.35,-1580.43 -853.03,-2586.05 -41.73,-142.92 -71.28,-298.38 -105.17,-466.11 -31.5,-155.85 -98.11,-311.42 -122.83,-462.86 -111.48,29.94 -236.67,98 -364.78,136.02 33.41,-45.52 81.96,-80.38 114.39,-108.73l596.94 -603.2c225.06,-273.81 392.03,-605.38 465.08,-974.56 31.71,-160.31 64.51,-754.92 -1.91,-908.05 -172.84,-398.49 -979.61,295.45 -1149.9,490.98 -40.14,46.1 -74.09,72.29 -115.15,124.87 -283.2,362.75 -347.94,558.35 -444.94,997.32 -15.83,71.61 -4.06,145.03 -23.28,212.58z"/>
   
   <path class="fil1" d="M13776.09 4226.61c44.2,-43.59 100.47,-95.68 127.85,-145.75 -138.82,-88.39 -253.85,-206.46 -350.1,-313.03 81.72,12.31 84.98,76.74 67.09,-44.11 -7.24,-48.85 21.54,-16.97 18.85,-87.22 -0.48,-12.59 -2.19,-8.83 -1.16,-22.61 0.11,-1.56 0.94,-5.89 1.13,-7.45 0.21,-1.59 1.33,-5.9 1.59,-7.49l-22.99 -142.87c-27.75,-70.16 11.44,-29.17 -19.7,-129.88 -25.53,-82.57 -50.88,-138.39 -52.73,-231.22 32.52,46.43 257.2,514.05 434.51,778.71 14.8,22.09 18.4,29.37 35.1,54.49l41.24 52.9c132.81,-115.21 345.02,-240.56 587.45,-258.38 -72.83,-325.19 -434.79,-876.51 -603.67,-1049.49 -73.27,-75.05 -145.05,-141.51 -201.48,-204.14 -99.56,-110.52 -612.21,-516.43 -769.42,-486.02 -204.44,39.54 -160.68,425.61 -162.42,659.11 -3.94,528.09 215.76,1092.99 628.12,1406.42 82.89,63 158.13,116.47 240.74,178.03z"/>
   <path class="fil0" d="M14927.56 6592.73c-3.85,-85.08 -20.87,-239.98 15.49,-302.77 -16.96,-21.48 27.66,-15.28 -34.51,-18.35l-273.81 8.36 1.45 3606.69 290 7.76 1.38 -3301.69z"/>
   <path class="fil0" d="M16033.54 9892.48l241.34 -3.13c-28.33,-945.3 -0.62,-2092.55 -2.53,-3076.89 -0.33,-169.86 -1.93,-340.91 -0.18,-510.65 1.22,-119.31 1.78,-113.64 -67.18,-182.1 -38.71,-38.44 -84.31,-107.61 -163.37,-97.13l-8.08 3869.9z"/>
   <path class="fil0" d="M15519.71 6257.41l0.8 3633.45 206.52 -0.75 -1.57 -3527.7c-0.03,-48.83 -0.54,-101.4 1.35,-149.97 2.7,-69.6 15.89,-78.98 -4.85,-122.79 -43.33,27.49 -58.07,49.02 -98.24,85.03 -33.3,29.87 -69.05,50.42 -104.01,82.73z"/>
   <path class="fil1" d="M17166.78 9343.07c-14.05,100.3 7.43,96.19 7.5,96.32 17.9,33.66 33.65,-11.07 4.44,7.85 -1.82,1.18 -12.81,5.48 -15.86,7.06l-24.36 13.47c4.1,14.8 13.78,31.81 14.91,35.29 10.24,31.35 10.58,-15.66 6.05,34.37 -0.05,0.6 -15.7,51.07 -19.07,78.84l51.73 28.98c-14.51,-42.3 -22.82,3.33 -16.53,28.13 13.9,54.85 1.3,-4.2 -3.81,125.89 -0.11,2.59 -0.41,7.27 -0.56,9.93 -0.16,2.74 -0.61,7.42 -0.79,10.18 -0.41,6.22 -2.25,18.57 -2.36,29.98l12.54 70.92c52.39,39.72 4.78,10.94 17.57,1.95 -6.47,40.33 -4.7,9.59 -36.3,57.42 46.29,19.77 37.42,30.56 73.54,37.17 38.47,7.03 28.07,2.67 32.36,6.08l8.28 14.83c14.63,29.21 13.62,37.24 38.9,39.44 3,0.25 12.57,-1.21 15.58,-1.94 1.6,-0.39 5.86,-2.27 7.42,-2.84 85.27,-31.17 82.79,-28.77 92.42,-66.14l14.03 18.71c5.86,8.41 14.85,22.14 18.01,26.74 9.01,-58.37 51.51,-85.48 99.25,-111.57 118.13,-64.56 -13.48,-3.78 50.69,-57.13 75.47,-62.73 140.94,-193.91 223.49,-246.22 -14.62,17.91 -7.52,63.24 -31.72,142.11 -93.09,303.33 -35.05,99.21 -91.52,209.93 -11.54,22.63 -20.31,56.72 -34.08,85.37 -54.51,113.35 -109.35,151.62 -188.7,232.55l-351.08 193.82c-120.46,42.5 -96.54,10.97 -91.68,80.78 46.58,23.4 214.86,-50.89 287.41,-86.55 289.47,-142.27 471.37,-358.58 546.95,-697.78 140.59,-631.04 -330.65,-991.51 -634.41,-934.13 -12.32,89.96 -18.09,176.26 -32.25,243.67 -16.19,77.02 -53.79,158.09 -47.99,236.52z"/>
   <path class="fil0" d="M13457.84 6587.44l-0.53 3299.91 218.45 -0.62c15.02,-801.51 0.11,-1711.14 1.62,-2534.2l-1.29 -885.33c-46.34,2.73 -73.31,24.77 -116.87,42.56 -49.68,20.29 -101.43,24.44 -101.38,77.68z"/>
   
   <path class="fil0" d="M12948.41 6977.49l1.63 2898.93c52.28,19.46 167.7,23.44 226.04,0.8l4.52 -3145.4c-44.02,6.99 -94.93,59.47 -133.95,90.78 -12.04,9.64 -61.01,48.11 -66.5,53.3 -38.6,36.54 -31.66,32.3 -31.74,101.59z"/>
   <path class="fil0" d="M15164.6 6223.07l2.96 263.45 5.94 3400.67 143.04 1.79 -0.74 -3712.06c-58.61,9.33 -94.84,30.79 -151.2,46.15z"/>
   <path class="fil2" d="M17047.07 10581.34c-4.86,-69.81 -28.78,-38.28 91.68,-80.78l351.08 -193.82c79.35,-80.93 134.19,-119.2 188.7,-232.55 13.77,-28.65 22.54,-62.74 34.08,-85.37 56.47,-110.72 -1.57,93.4 91.52,-209.93 24.2,-78.87 17.1,-124.2 31.72,-142.11 -82.55,52.31 -148.02,183.49 -223.49,246.22 -64.17,53.35 67.44,-7.43 -50.69,57.13 -47.74,26.09 -90.24,53.2 -99.25,111.57 -3.16,-4.6 -12.15,-18.33 -18.01,-26.74l-14.03 -18.71c-9.63,37.37 -7.15,34.97 -92.42,66.14 -1.56,0.57 -5.82,2.45 -7.42,2.84 -3.01,0.73 -12.58,2.19 -15.58,1.94 -25.28,-2.2 -24.27,-10.23 -38.9,-39.44l-8.28 -14.83c-4.29,-3.41 6.11,0.95 -32.36,-6.08 -36.12,-6.61 -27.25,-17.4 -73.54,-37.17 31.6,-47.83 29.83,-17.09 36.3,-57.42 -12.79,8.99 34.82,37.77 -17.57,-1.95l-12.54 -70.92c0.11,-11.41 1.95,-23.76 2.36,-29.98 0.18,-2.76 0.63,-7.44 0.79,-10.18 0.15,-2.66 0.45,-7.34 0.56,-9.93 5.11,-130.09 17.71,-71.04 3.81,-125.89 -6.29,-24.8 2.02,-70.43 16.53,-28.13l-51.73 -28.98c3.37,-27.77 19.02,-78.24 19.07,-78.84 4.53,-50.03 4.19,-3.02 -6.05,-34.37 -1.13,-3.48 -10.81,-20.49 -14.91,-35.29l24.36 -13.47c3.05,-1.58 14.04,-5.88 15.86,-7.06 29.21,-18.92 13.46,25.81 -4.44,-7.85 -0.07,-0.13 -21.55,3.98 -7.5,-96.32 -62.08,85.61 -252.62,679.03 -295.57,794.68 -55.11,148.42 37.89,108.68 132.87,357.58l42.99 86.01z"/>
   <path class="fil0" d="M16418.52 9884.85l120.3 5.57c18.26,-597.25 -5.12,-1230.74 -3.81,-1832.81l4.73 -1380.45c0.33,-76.42 13.88,-124.92 -20.82,-180.25 -21.34,-34.03 -65.32,-106.33 -99.1,-126.49l-1.3 3514.43z"/>
   <path class="fil0" d="M16689.27 9731.08c24.04,-46.3 82.48,-88.2 131.72,-110.34l1.99 -2447.64c-9.27,-41.09 -44.4,-79.23 -64,-122.83 -22.89,-50.93 -24.3,-89.91 -66.32,-119.72l-3.39 2800.53z"/>
   <path class="fil0" d="M12309.7 7847.58l1.06 2048.04 151.94 0.29c-1.41,-223.63 9.73,-2246.29 -11.11,-2284.68 -19.99,11.47 -141.55,178.07 -141.89,236.35z"/>
   <path class="fil3" d="M15720.31 4395.01c110.15,-59.81 320.88,-328.94 407.91,-446.54 37.85,-51.14 121.17,-137.03 17.7,-94.97l15.52 -115c-0.11,-1.66 -0.9,-6.07 -1,-7.73l-0.29 -46.22c-0.26,-2.97 -1.86,-10.85 -2.36,-13.77l-12.92 -118.25c13.25,-52.07 6.54,3 13.68,-32.93l-8.65 -155.28c6.45,-65.34 -28.55,8.75 12.58,-111.11 13.54,-39.47 3.13,-34.54 5.34,-68.42 3.32,-50.92 9.31,-27.47 41.05,-71.29l20.07 -121.99c4.32,-24.57 -6.81,1.1 14.22,-25.27 22.82,-28.64 29.89,-16.06 27.49,-68.93 -0.87,-19.01 -9.59,-17.75 0.37,-53.87 20.35,-73.84 14.84,9.75 45.72,-84.31 0.81,-2.48 1.54,-7.01 2.22,-9.44 0.65,-2.28 1.32,-6.69 1.91,-8.92l22.55 -80.24c-107.32,84.67 -342.98,651.13 -391.21,783.41 -92.74,254.38 -241.8,678.31 -231.9,951.07z"/>
   <path class="fil0" d="M14793.91 5205.25c87.66,-42.99 91.32,-70.32 207.58,-78.88 100.44,-7.38 322.26,-0.47 371.77,-193.36 28.76,-112.07 -9.68,-175.42 -48.71,-250.98l120.78 24.97c-15.55,-71.93 -113.79,-112.95 -218.81,-106.51 -274.94,16.85 -393.87,364.74 -432.61,604.76z"/>
   <path class="fil2" d="M14957.84 10949.44l503.63 -3.49c-14.78,-29.8 -57.39,-53.47 -81.92,-70.8 -149.49,-105.58 -299.14,-214.89 -469.3,-208.61 -132.3,4.89 -72.55,28.2 -6.92,159.39 22.98,45.96 31.44,82.95 54.51,123.51z"/>
   <path class="fil0" d="M13977.24 5930.61c118.19,0.56 187.96,-64.78 236.6,-54.43 84.76,18.03 115.31,67.69 244.66,63.42 -114.81,-72.91 -242.46,-119.9 -222.18,-298.96 102.5,-57.79 182.22,-78.88 228.09,-198.83 -121.37,11.01 -217.72,94.03 -288.43,100.67 -81.83,7.69 -158.41,-90.27 -285.55,-95.59 40.43,208.1 449.17,139.31 104.17,466.57 -2.43,2.3 -6.67,6.59 -8.65,8.49 -2.01,1.93 -5.89,5.69 -8.71,8.66z"/>
   <path class="fil4" d="M15796.85 10224.1c-51.58,99.5 -57.47,66.45 -142.34,60.09 -31.5,-2.37 -55.41,-14.71 -46.97,33.75 17.07,97.94 332.29,81.86 270.01,-204.1 -26.86,-123.34 -198.81,-175.14 -270.36,-70.13 -89.74,131.72 31.7,239.78 189.66,180.39z"/>
   <path class="fil4" d="M13687.72 10277.86c5.61,-49.85 9.95,-24.87 -4.48,-73.18 -17.9,-59.93 -0.79,5.7 -16.09,-33.12 -17.73,-44.99 -4.18,24.7 -8.97,-28.91 -2.92,-32.7 28.48,-78.66 -17.98,-123.01 -18.88,-18.03 -203.59,-91.11 -198,90.25 2.86,92.75 -18.11,37.7 -33.31,110.46 -12.02,57.52 11.6,97.95 45.07,120.63 97.95,66.35 188.7,24.16 233.76,-63.12z"/>
   <path class="fil4" d="M16289.98 10230.08c-22.16,35.84 -34.02,45.36 -77.18,56.58 -87.04,22.63 -68.16,-15.94 -77.94,66.21l67.16 21.26c22.29,0.53 62.4,-13.42 75.56,-20.19 131.38,-67.54 140.62,-301.95 36.8,-354.74 -238.02,-121.03 -336.69,314.66 -24.4,230.88z"/>
   <path class="fil4" d="M15289.23 10216.2c-2.25,30.92 -25.5,53.87 -53.98,69.03 -36.35,19.33 -18.63,5.85 -57.17,12.11l-39.65 10.52c97.37,257.62 377.23,-199.87 167.68,-304.98 -235.32,-118.03 -294.68,282.49 -71.82,237.66 1.15,-0.23 28.26,-8.47 32.41,-10.14 36.48,-14.7 22.07,-12.93 22.53,-14.2z"/>
   <path class="fil5" d="M14908.54 6271.61c62.17,3.07 17.55,-3.13 34.51,18.35 -36.36,62.79 -19.34,217.69 -15.49,302.77 63.38,-36.65 140.97,-47 183.83,-91.8 42.74,-44.67 -22.56,-18.9 37.89,-46.84 0.08,66.33 -3.43,5.75 18.28,32.43l-2.96 -263.45c-58.66,-0.52 -209.55,22.45 -256.06,48.54z"/>
   <path class="fil6" d="M12953 9999.25c-53.28,135.68 -21.7,154.24 93.28,198.21 -51.83,42.46 -110.95,111.06 -121.14,181.66 32.56,-0.32 199.53,0.93 218.09,-7.14 38.32,-16.66 8.46,23.25 25.9,-23.33 24.6,-65.69 -14.78,-37.31 -15.01,-37.46 -24.29,-16.61 -65.58,-9.19 -95.33,-11.3 36.92,-47.85 118.23,-101.69 107.96,-213.73 -10.76,-117.4 -119.69,-113.29 -213.75,-86.91z"/>
   <path class="fil0" d="M14555.36 10007.83l0.63 45.12 192.61 9.09c-40.52,100.5 -130.43,191.43 -154.61,304.94 98.45,0.39 73.12,19.95 160.03,-141.68 45.19,-84.04 80.11,-117.7 79.05,-232.64 -73.75,-9.72 -219.95,-28.41 -277.71,15.17z"/>
  </g>
 </g>
</svg>