<?xml version="1.0" encoding="UTF-8"?>
<!DOCTYPE svg PUBLIC "-//W3C//DTD SVG 1.1//EN" "http://www.w3.org/Graphics/SVG/1.1/DTD/svg11.dtd">
<!-- Creator: CorelDRAW (Evaluation Version) -->
<svg xmlns="http://www.w3.org/2000/svg" xml:space="preserve" width="256px" height="128px" version="1.1" style="shape-rendering:geometricPrecision; text-rendering:geometricPrecision; image-rendering:optimizeQuality; fill-rule:evenodd; clip-rule:evenodd"
viewBox="0 0 256 128"
 xmlns:xlink="http://www.w3.org/1999/xlink"
 xmlns:xodm="http://www.corel.com/coreldraw/odm/2003">
 <defs>
  <style type="text/css">
   <![CDATA[
    .str0 {stroke:black;stroke-width:0.427;stroke-miterlimit:22.9256}
    .fil0 {fill:none}
    .fil4 {fill:black}
    .fil3 {fill:url(#id0)}
    .fil2 {fill:url(#id1)}
    .fil1 {fill:url(#id2)}
   ]]>
  </style>
  <linearGradient id="id0" gradientUnits="userSpaceOnUse" x1="24.649" y1="24.163" x2="29.376" y2="19.038">
   <stop offset="0" style="stop-opacity:1; stop-color:#C0C9CA"/>
   <stop offset="1" style="stop-opacity:1; stop-color:white"/>
  </linearGradient>
  <linearGradient id="id1" gradientUnits="userSpaceOnUse" x1="46.76" y1="23.811" x2="58.851" y2="20.057">
   <stop offset="0" style="stop-opacity:1; stop-color:#B3BDBF"/>
   <stop offset="0.380392" style="stop-opacity:1; stop-color:#D9DEDF"/>
   <stop offset="1" style="stop-opacity:1; stop-color:white"/>
  </linearGradient>
  <linearGradient id="id2" gradientUnits="userSpaceOnUse" x1="43.5" y1="48.659" x2="37.861" y2="28.643">
   <stop offset="0" style="stop-opacity:1; stop-color:#405B5E"/>
   <stop offset="0.0588235" style="stop-opacity:1; stop-color:#9FADAE"/>
   <stop offset="1" style="stop-opacity:1; stop-color:white"/>
  </linearGradient>
 </defs>
 <g id="Layer_x0020_1">
  <metadata id="CorelCorpID_0Corel-Layer"/>
  <ellipse class="fil0 str0" transform="matrix(-0.779441 -0.45001 -0.45001 0.779441 49.3246 24.4842)" rx="6.497" ry="17.769"/>
  <ellipse class="fil0 str0" transform="matrix(0.779441 -0.45001 0.45001 0.779441 31.161 24.8016)" rx="6.497" ry="17.769"/>
  <path class="fil1 str0" d="M40.68 49.453c-2.233,0.511 -4.066,-0.234 -6.66,-0.851 -0.41,-0.097 -1.196,-1.188 -1.62,-1.204 -1.899,-0.072 -3.215,-1.831 -3.827,-3.207 -0.526,-1.182 0.49,-17.112 12.107,-16.343 6.838,0.453 10.724,4.837 10.724,10.803 0,5.966 -4.951,9.482 -10.724,10.802z"/>
  <path class="fil2 str0" d="M48.962 30.904c-1.533,0 -1.056,-4.017 1.066,-8.97 2.123,-4.954 5.087,-8.97 6.62,-8.97 1.534,0 1.057,4.016 -1.066,8.97 -2.122,4.953 -5.086,8.97 -6.62,8.97z"/>
  <path class="fil3 str0" d="M23.132 13.279c0.978,-0.456 3.508,2.9 5.651,7.496 2.143,4.596 3.088,8.691 2.11,9.147 -0.978,0.456 -3.508,-2.9 -5.651,-7.496 -2.143,-4.596 -3.088,-8.691 -2.11,-9.147z"/>
  <rect class="fil4 str0" transform="matrix(0.996195 -0.0871557 0.0435751 0.498065 21.9272 42.1727)" width="5.323" height="2.505"/>
  <rect class="fil4 str0" transform="matrix(0.996195 0.0871557 -0.0435751 0.498065 22.3494 39.3605)" width="5.323" height="2.505"/>
  <rect class="fil4 str0" transform="matrix(0.906308 -0.422618 0.211296 0.453125 22.7391 45.9398)" width="5.323" height="2.505"/>
  <ellipse class="fil4 str0" cx="42.628" cy="36.462" rx="2.105" ry="2.358"/>
  <path class="fil4 str0" d="M41.71 38.417l-0.963 0.452 -0.998 0.799 -0.001 -1.029 0.559 -1.488 0.265 -1.192 1.517 -1.776 1.852 -0.105c0,0 0.732,0.399 1.531,0.865 0.183,0.107 -1.17,-0.206 -1.43,0.1 -0.874,1.032 -2.332,3.374 -2.332,3.374z"/>
  <polygon class="fil4 str0" points="31.32,41.744 32.636,42.17 33.604,42.673 36.391,41.666 36.352,42.286 34.61,43.486 34.417,44.26 34.649,44.996 35.346,45.576 36.468,46.118 35.771,46.273 34.146,45.654 32.791,46.157 32.055,46.157 32.674,45.46 33.139,44.763 33.449,44.26 33.178,43.486 32.094,42.983 31.552,42.441 "/>
  <path class="fil0 str0" d="M31.32 41.744c2.284,0.929 2.284,0.929 2.284,0.929l2.787 -1.007"/>
 </g>
</svg>
